<?xml version="1.0" standalone="no"?>
<!DOCTYPE svg PUBLIC "-//W3C//DTD SVG 20010904//EN"
 "http://www.w3.org/TR/2001/REC-SVG-20010904/DTD/svg10.dtd">
<svg version="1.0" xmlns="http://www.w3.org/2000/svg"
 width="1280.000000pt" height="1280.000000pt" viewBox="0 0 1280.000000 1280.000000"
 preserveAspectRatio="xMidYMid meet">
<metadata>
Created by potrace 1.14, written by Peter Selinger 2001-2017
</metadata>
<g transform="translate(0.000000,1280.000000) scale(0.100000,-0.100000)"
fill="#000000" stroke="none">
<path d="M1147 12685 c-2 -5 -5 -1979 -6 -4385 -1 -2406 -3 -5227 -4 -6268 -1
-1042 1 -1896 4 -1898 4 -2 4923 -7 5051 -4 15 0 16 258 18 3807 1 2095 2
4921 4 6281 1 1703 -1 2472 -9 2473 -5 0 -1145 1 -2532 2 -1705 2 -2524 -1
-2526 -8z"/>
<path d="M6560 9853 c0 -455 -2 -2023 -3 -3483 l-2 -2655 1340 0 c1152 0 1539
5 1565 20 3 1 37 6 75 9 39 4 77 9 85 11 8 2 35 7 60 10 25 3 52 8 60 10 8 2
29 7 47 10 91 15 293 73 407 116 310 118 545 267 756 479 140 140 229 263 314
435 143 287 200 537 200 880 0 185 -18 328 -60 475 -24 83 -86 240 -109 275
-12 16 -24 37 -27 47 -4 9 -28 47 -54 85 -240 343 -635 572 -1208 699 -74 16
-77 19 -50 27 347 111 623 276 848 508 227 234 371 528 413 844 15 114 8 439
-12 542 -2 11 -6 38 -9 58 -4 21 -16 75 -27 119 -72 286 -190 498 -384 691
-187 187 -407 318 -715 427 -47 17 -98 34 -115 38 -16 5 -73 19 -125 33 -107
28 -285 62 -375 73 -33 3 -71 8 -85 10 -14 2 -61 6 -105 10 -44 3 -91 8 -105
11 -14 2 -604 7 -1312 9 l-1288 5 0 -828z m2425 73 c123 -8 202 -15 235 -21
14 -3 43 -7 65 -10 95 -12 287 -64 389 -107 294 -121 480 -323 565 -613 21
-71 23 -80 42 -195 25 -151 16 -386 -20 -545 -69 -303 -271 -544 -576 -690
-156 -74 -324 -129 -459 -149 -21 -4 -48 -8 -60 -11 -24 -5 -89 -12 -201 -21
-62 -5 -1292 -9 -1440 -5 l-30 1 2 1175 c0 647 3 1181 6 1188 4 10 151 12 693
11 379 -1 734 -5 789 -8z m255 -3049 c19 -3 69 -8 109 -12 41 -3 77 -8 80 -9
4 -2 29 -6 56 -10 50 -5 291 -68 330 -85 101 -44 241 -120 290 -156 169 -126
284 -273 353 -451 56 -141 73 -235 77 -414 9 -444 -159 -805 -474 -1014 -108
-72 -291 -157 -391 -181 -8 -2 -51 -13 -95 -24 -44 -11 -98 -22 -120 -25 -22
-3 -56 -8 -75 -11 -19 -3 -53 -8 -75 -12 -22 -3 -438 -8 -925 -10 l-886 -5 2
1214 c1 667 2 1214 3 1214 3 4 1711 -5 1741 -9z"/>
</g>
</svg>
